<svg width="28" height="28" viewBox="0 0 28 28" fill="none" xmlns="http://www.w3.org/2000/svg">
<g clip-path="url(#clip0_245_6911)">
<path d="M26.8337 27.125V3.15817C26.8337 1.41633 25.4197 0 23.6813 0H4.31933C2.58099 0 1.16699 1.41633 1.16699 3.15817V20.2767C1.16699 22.0173 2.58099 23.4348 4.31933 23.4348H20.025L25.4068 27.8052C25.9773 28.2648 26.8337 27.8647 26.8337 27.125ZM25.0837 25.2875C20.7285 21.8377 20.8825 21.6848 20.3353 21.6848H4.31933C3.54583 21.6848 2.91699 21.0537 2.91699 20.2767V3.15817C2.91699 2.38117 3.54583 1.75 4.31933 1.75H23.6813C24.4548 1.75 25.0837 2.38117 25.0837 3.15817V25.2875Z" fill="#00FFA3"/>
<path d="M16.2788 5.7119C11.4651 5.6629 8.43877 5.16824 5.98061 9.0894C4.58294 11.3201 4.29127 15.1712 4.84661 16.4067C5.53144 17.9327 7.13794 18.7506 9.90177 18.9827C10.6496 19.0282 10.8141 18.3341 11.5841 17.5186C12.9806 17.8056 15.0176 17.8056 16.4153 17.5186C17.2331 18.4076 17.3778 19.0341 18.0976 18.9827C20.8614 18.7517 22.4691 17.9327 23.1539 16.4067C23.7104 15.1689 23.4164 11.3177 22.0199 9.0894C19.7251 5.4284 16.3429 5.7049 16.2788 5.7119ZM21.5579 15.6904C21.4226 15.9937 21.0224 16.8851 18.4079 17.1931L18.3543 17.1277C18.4219 17.0787 19.9071 15.9949 19.9678 15.9377C20.7704 15.1957 19.7391 13.9427 18.8559 14.5902C18.8559 14.5902 17.0604 16.0042 14.0014 16.0042C10.7873 16.0042 9.43511 14.7524 9.14694 14.5902C8.26494 13.9416 7.23244 15.1957 8.03511 15.9377C8.09577 15.9937 9.58211 17.0787 9.64861 17.1277L9.59494 17.1931C6.98161 16.8851 6.58144 15.9949 6.44494 15.6892C6.20111 15.1304 6.28278 11.9046 7.46578 10.0192C8.43761 8.46874 9.86211 7.46307 11.7241 7.46307C16.1831 7.36274 18.6098 6.9404 20.5394 10.0192C21.7189 11.9046 21.8018 15.1316 21.5579 15.6904Z" fill="#00FFA3"/>
<path d="M11.153 10.2712C8.48486 10.2712 8.48603 14.3044 11.153 14.3044C13.8142 14.3044 13.8235 10.2712 11.153 10.2712ZM10.9617 12.0807C11.0597 11.9652 11.4085 12.0212 11.4085 12.2872C11.4074 12.8122 10.6152 12.4716 10.9617 12.0807Z" fill="#00FFA3"/>
<path d="M14.8428 12.2873C14.8428 14.9648 18.8538 14.9776 18.8538 12.2884C18.8526 9.61093 14.8428 9.59693 14.8428 12.2873ZM16.6569 12.0808C16.7549 11.9653 17.1026 11.9746 17.1026 12.2884C17.1026 12.8134 16.3139 12.4693 16.6569 12.0808Z" fill="#00FFA3"/>
</g>
<defs>
<clipPath id="clip0_245_6911">
<rect width="28" height="28" fill="white"/>
</clipPath>
</defs>
</svg>
