<svg width="16" height="16" viewBox="0 0 16 16" fill="none" xmlns="http://www.w3.org/2000/svg">
<path d="M15.459 4.91005C15.4239 4.11304 15.295 3.56511 15.1104 3.09031C14.9199 2.58633 14.6269 2.13511 14.243 1.76002C13.8679 1.37908 13.4137 1.08308 12.9155 0.895586C12.438 0.710956 11.8929 0.58207 11.0959 0.54693C10.2929 0.508814 10.038 0.5 8.00149 0.5C5.96495 0.5 5.71004 0.508814 4.91005 0.543954C4.11304 0.579094 3.56511 0.708095 3.09043 0.89261C2.58633 1.08308 2.13511 1.3761 1.76002 1.76002C1.37908 2.13511 1.08319 2.5893 0.895586 3.08745C0.710956 3.56511 0.58207 4.11007 0.54693 4.90708C0.508814 5.71004 0.5 5.96495 0.5 8.00149C0.5 10.038 0.508814 10.2929 0.543954 11.0929C0.579094 11.8899 0.708095 12.4379 0.892725 12.9127C1.08319 13.4166 1.37908 13.8679 1.76002 14.243C2.13511 14.6239 2.5893 14.9199 3.08745 15.1074C3.56511 15.292 4.11007 15.4209 4.90719 15.456C5.70706 15.4913 5.96209 15.5 7.99863 15.5C10.0352 15.5 10.2901 15.4913 11.0901 15.456C11.8871 15.4209 12.435 15.292 12.9097 15.1074C13.9178 14.7176 14.7148 13.9206 15.1045 12.9127C15.289 12.435 15.418 11.8899 15.4532 11.0929C15.4883 10.2929 15.4971 10.038 15.4971 8.00149C15.4971 5.96495 15.4942 5.71004 15.459 4.91005ZM14.1082 11.0343C14.076 11.7669 13.9529 12.1625 13.8503 12.4262C13.5983 13.0797 13.0797 13.5983 12.4262 13.8504C12.1625 13.9529 11.764 14.076 11.0343 14.1081C10.2431 14.1434 10.0059 14.1521 8.00446 14.1521C6.00307 14.1521 5.76281 14.1434 4.9745 14.1081C4.24193 14.076 3.84634 13.9529 3.58262 13.8504C3.25743 13.7302 2.96143 13.5397 2.72117 13.2906C2.47209 13.0474 2.28163 12.7544 2.16144 12.4292C2.05888 12.1654 1.93583 11.7669 1.90367 11.0373C1.86841 10.2461 1.85971 10.0087 1.85971 8.00733C1.85971 6.00593 1.86841 5.76567 1.90367 4.97747C1.93583 4.24491 2.05888 3.84932 2.16144 3.5856C2.28163 3.26029 2.47209 2.9644 2.72414 2.72403C2.96726 2.47496 3.26029 2.28449 3.5856 2.16442C3.84932 2.06186 4.24788 1.93881 4.97747 1.90653C5.76865 1.87139 6.00604 1.86258 8.00732 1.86258C10.0117 1.86258 10.249 1.87139 11.0373 1.90653C11.7699 1.93881 12.1654 2.06186 12.4292 2.16442C12.7544 2.28449 13.0504 2.47496 13.2906 2.72403C13.5397 2.96726 13.7302 3.26029 13.8503 3.5856C13.9529 3.84932 14.076 4.24777 14.1082 4.97747C14.1434 5.76865 14.1522 6.00593 14.1522 8.00733C14.1522 10.0087 14.1434 10.2431 14.1082 11.0343Z" fill="#979797"/>
<path d="M8.0015 4.14819C5.87419 4.14819 4.14819 5.87408 4.14819 8.0015C4.14819 10.1289 5.87419 11.8548 8.0015 11.8548C10.1289 11.8548 11.8548 10.1289 11.8548 8.0015C11.8548 5.87408 10.1289 4.14819 8.0015 4.14819ZM8.0015 10.501C6.62141 10.501 5.50195 9.3817 5.50195 8.0015C5.50195 6.6213 6.62141 5.50196 8.0015 5.50196C9.3817 5.50196 10.501 6.6213 10.501 8.0015C10.501 9.3817 9.3817 10.501 8.0015 10.501Z" fill="#979797"/>
<path d="M12.9068 3.99576C12.9068 4.49253 12.504 4.89533 12.0071 4.89533C11.5104 4.89533 11.1076 4.49253 11.1076 3.99576C11.1076 3.49887 11.5104 3.09619 12.0071 3.09619C12.504 3.09619 12.9068 3.49887 12.9068 3.99576Z" fill="#979797"/>
</svg>
