<svg width="20" height="20" viewBox="0 0 20 20" fill="none" xmlns="http://www.w3.org/2000/svg">
<path d="M17.4962 17.5V17.4994H17.5V11.9982C17.5 9.30699 16.9206 7.23389 13.7744 7.23389C12.2619 7.23389 11.2469 8.06388 10.8325 8.85075H10.7888V7.48513H7.80563V17.4994H10.9119V12.5407C10.9119 11.2351 11.1594 9.97261 12.7763 9.97261C14.3694 9.97261 14.3931 11.4626 14.3931 12.6245V17.5H17.4962Z" fill="#979797"/>
<path d="M2.74747 7.4856H5.85746V17.4999H2.74747V7.4856Z" fill="#979797"/>
<path d="M4.30125 2.5C3.30687 2.5 2.5 3.30687 2.5 4.30123C2.5 5.2956 3.30687 6.11934 4.30125 6.11934C5.29562 6.11934 6.1025 5.2956 6.1025 4.30123C6.10187 3.30687 5.295 2.5 4.30125 2.5V2.5Z" fill="#979797"/>
</svg>
