<svg width="28" height="28" viewBox="0 0 28 28" fill="none" xmlns="http://www.w3.org/2000/svg">
<path d="M25.5391 3.33594H2.46094C1.10398 3.33594 0 4.43991 0 5.79688V22.2031C0 23.5601 1.10398 24.6641 2.46094 24.6641H25.5391C26.896 24.6641 28 23.5601 28 22.2031V5.79688C28 4.43991 26.896 3.33594 25.5391 3.33594ZM21.974 4.97656L14 10.9257L6.02602 4.97656H21.974ZM2.46094 4.97656H3.2824L13.5095 12.6067C13.655 12.7153 13.8275 12.7695 14 12.7695C14.1725 12.7695 14.345 12.7153 14.4905 12.6067L24.7176 4.97656H25.5391C25.9911 4.97656 26.3588 5.34401 26.3593 5.79589L14 15.0269L1.64068 5.79589C1.64123 5.34401 2.00895 4.97656 2.46094 4.97656ZM13.5091 16.708C13.6547 16.8167 13.8274 16.8711 14 16.8711C14.1726 16.8711 14.3453 16.8167 14.4909 16.708L23.0781 10.2943V23.0234H4.92188V10.2943L13.5091 16.708ZM1.64062 22.2031V7.84355L3.28125 9.06894V23.0234H2.46094C2.00862 23.0234 1.64062 22.6554 1.64062 22.2031ZM25.5391 23.0234H24.7188V9.06894L26.3594 7.84355V22.2031C26.3594 22.6554 25.9914 23.0234 25.5391 23.0234Z" fill="#00FFA3"/>
</svg>
