<svg width="28" height="28" viewBox="0 0 28 28" fill="none" xmlns="http://www.w3.org/2000/svg">
<g clip-path="url(#clip0_245_6918)">
<path d="M0.393968 5.15899L3.4238 7.15166V19.8298L0.259801 22.9518C-0.295532 23.5013 0.0953012 24.4498 0.874634 24.4498H7.7218C8.49997 24.4498 8.89313 23.5025 8.33663 22.9518L5.17263 19.8298V10.5992C8.41713 17.5012 11.58 24.2177 11.5041 24.0648C11.8238 24.7135 12.8353 24.731 13.1095 23.9773L13.1106 23.975C13.1106 23.975 13.1118 23.9738 13.1118 23.9727C13.8701 21.8808 15.4965 17.395 15.3926 17.6797C15.451 17.5175 18.2171 9.62266 18.2603 9.50016V20.902L16.2291 22.9612C15.6843 23.5142 16.0775 24.451 16.8521 24.451H27.1246C27.897 24.451 28.2913 23.5188 27.75 22.9647L25.7981 20.9662L25.72 7.04432L27.7395 5.05166C28.2948 4.50216 27.904 3.55366 27.1246 3.55366C26.3056 3.55366 30.0938 3.55249 19.1096 3.55832C17.992 3.59099 18.37 4.59549 14.4593 14.959L9.6643 4.07516C9.5243 3.75782 9.2093 3.55249 8.8628 3.55249H0.874634C0.00896783 3.55366 -0.330532 4.68416 0.393968 5.15899ZM3.00613 22.701L4.29763 21.4258L5.58913 22.701H3.00613ZM20.0103 5.30366H24.9931C24.4343 5.92782 23.9653 6.10982 23.9676 6.68616L24.0505 21.329C24.0528 21.8843 24.5066 22.0792 25.0468 22.6998H18.9451C19.5483 22.015 20.0115 21.8272 20.0115 21.2602V5.30366H20.0103ZM8.2923 5.30366L13.6053 17.3612L12.175 21.3827C4.96963 6.08066 5.2228 5.84032 3.79713 5.30366H8.2923Z" fill="#00FFA3"/>
</g>
<defs>
<clipPath id="clip0_245_6918">
<rect width="28" height="28" fill="white"/>
</clipPath>
</defs>
</svg>
