<svg width="132" height="40" viewBox="0 0 132 40" fill="none" xmlns="http://www.w3.org/2000/svg">
<g clip-path="url(#clip0_245_6943)">
<path d="M18.4477 32.9363C12.3697 32.9363 7.44156 28.0082 7.44156 21.9302C7.44156 16.0164 17.38 5.58521 17.7906 5.17453L18.2834 4.59958L18.7763 5.17453C19.1869 5.58521 29.3717 16.0164 29.3717 21.9302C29.4539 28.0082 24.5257 32.9363 18.4477 32.9363ZM18.3656 6.7351C17.4621 7.72073 15.6551 9.69198 13.8481 12.156C10.6448 16.4271 8.92 19.7946 8.92 21.9302C8.92 27.1868 13.191 31.4579 18.4477 31.4579C23.7044 31.4579 27.9754 27.1868 27.9754 21.9302C27.9754 19.7946 26.2506 16.4271 22.9652 12.156C21.1582 9.77412 19.2691 7.72073 18.3656 6.7351Z" fill="url(#paint0_linear_245_6943)"/>
<path d="M18.4477 36.4682C10.3984 36.4682 3.90973 29.9795 3.90973 21.9302C3.90973 14.1273 14.8338 3.2033 15.3266 2.71048C15.6551 2.46408 16.0658 2.46408 16.3943 2.71048C16.6407 3.03902 16.6407 3.4497 16.3943 3.77824C16.2301 3.86038 5.38817 14.7023 5.38817 21.9302C5.38817 29.1581 11.2198 34.9897 18.4477 34.9897C25.6756 34.9897 31.5073 29.1581 31.5073 21.9302C31.5073 18.9733 29.6182 14.8665 26.0042 10.1027C23.2116 6.40658 20.419 3.61397 20.419 3.61397C20.0904 3.36757 20.0904 2.87475 20.419 2.54621C20.6654 2.21767 21.1582 2.21767 21.4867 2.54621C21.9795 3.03902 33.0678 14.1273 33.0678 21.9302C32.9857 29.9795 26.497 36.4682 18.4477 36.4682Z" fill="url(#paint1_linear_245_6943)"/>
<path d="M18.4477 40C8.75572 40 0.788574 32.0328 0.788574 22.3409C0.788574 18.3162 2.84196 13.3881 6.78447 7.6386C9.74135 3.44969 12.6161 0.410673 12.7804 0.246402C13.0268 -0.08214 13.5196 -0.08214 13.8481 0.246402C14.1767 0.492809 14.1767 0.985622 13.8481 1.31416C13.8481 1.31416 10.8912 4.35318 8.0165 8.54209C4.23827 13.963 2.26701 18.7269 2.26701 22.423C2.26701 31.3758 9.57708 38.6037 18.4477 38.6037C27.3184 38.6037 34.6284 31.2115 34.6284 22.3409C34.6284 18.6448 32.6572 13.8809 28.8789 8.45995C26.0042 4.35318 23.0473 1.31416 23.0473 1.23203C22.8009 0.903486 22.8009 0.492809 23.0473 0.164267C23.3758 -0.08214 23.7865 -0.08214 24.1151 0.164267C24.5257 0.739215 36.1069 12.731 36.1069 22.3409C36.1069 32.0328 28.2218 40 18.4477 40Z" fill="url(#paint2_linear_245_6943)"/>
<path d="M43.7455 25.8727L47.2773 25.5441C47.5237 26.694 47.9344 27.5975 48.5915 28.1725C49.2485 28.7474 50.152 28.9938 51.2198 28.9938C52.3697 28.9938 53.2732 28.7474 53.8481 28.2546C54.4231 27.7618 54.7516 27.1868 54.7516 26.5298C54.7516 26.1191 54.5873 25.7084 54.3409 25.462C54.0945 25.1335 53.6839 24.8871 53.0268 24.7228C52.6161 24.5585 51.6305 24.3121 50.152 23.9014C48.1808 23.4086 46.8666 22.8337 46.0452 22.0944C44.9775 21.1088 44.4025 19.8768 44.4025 18.4805C44.4025 17.577 44.6489 16.6735 45.1418 15.9343C45.6346 15.1951 46.3738 14.538 47.3594 14.1273C48.345 13.7166 49.4949 13.4702 50.8912 13.4702C53.191 13.4702 54.8337 13.963 55.9836 14.9487C57.1335 15.9343 57.7085 17.2484 57.7906 18.8912L54.1767 19.0554C54.0124 18.1519 53.6839 17.4949 53.191 17.0842C52.6982 16.6735 51.959 16.4271 50.8912 16.4271C49.8235 16.4271 49.0021 16.6735 48.4272 17.0842C48.0165 17.3306 47.8522 17.7413 47.8522 18.2341C47.8522 18.6448 48.0165 19.0554 48.4272 19.3018C48.92 19.7125 49.9878 20.1232 51.7947 20.5339C53.6017 20.9445 54.8338 21.3552 55.7372 21.848C56.5586 22.2587 57.2157 22.9158 57.7085 23.655C58.2013 24.3942 58.4477 25.3799 58.4477 26.5298C58.4477 27.5975 58.2013 28.501 57.6264 29.4045C57.0514 30.308 56.2301 30.9651 55.1623 31.3758C54.0945 31.7864 52.7804 32.0328 51.2198 32.0328C48.92 32.0328 47.1951 31.54 45.9631 30.4723C44.7311 29.4045 43.9919 27.9261 43.7455 25.8727Z" fill="white" fill-opacity="0.64"/>
<path d="M61.4046 31.7864V13.7166H74.7105V16.7556H65.0186V20.7803H74.0535V23.8193H65.0186V28.7474H75.0391V31.7864H61.4046Z" fill="white" fill-opacity="0.64"/>
<path d="M78.2424 31.7864V13.7166H85.881C87.7701 13.7166 89.1664 13.8809 90.0699 14.2094C90.9734 14.538 91.6305 15.1129 92.1233 15.9343C92.6161 16.7556 92.9446 17.7413 92.9446 18.809C92.9446 20.1232 92.5339 21.2731 91.7126 22.1766C90.8912 23.0801 89.7413 23.5729 88.1808 23.8193C89.0021 24.3121 89.5771 24.8049 90.152 25.2977C90.6448 25.8727 91.3841 26.8583 92.2054 28.2546L94.4231 31.7864H90.0699L87.4415 27.8439C86.5381 26.4476 85.881 25.5441 85.5524 25.2156C85.2239 24.887 84.8132 24.6406 84.4847 24.4764C84.074 24.3121 83.499 24.3121 82.6777 24.3121H81.9385V31.7864H78.2424V31.7864ZM81.8563 21.3552H84.5668C86.2916 21.3552 87.3594 21.2731 87.8522 21.1088C88.2629 20.9445 88.5914 20.6981 88.8378 20.3696C89.0843 20.041 89.1664 19.5482 89.1664 19.0554C89.1664 18.4805 89.0021 17.9877 88.6736 17.577C88.345 17.1663 87.9344 17.002 87.2773 16.8378C86.9487 16.8378 86.1274 16.7556 84.6489 16.7556H81.7742L81.8563 21.3552Z" fill="white" fill-opacity="0.64"/>
<path d="M96.3122 13.7166H99.9261V23.4907C99.9261 25.0513 100.008 26.0369 100.09 26.5298C100.255 27.269 100.583 27.8439 101.24 28.3367C101.815 28.7474 102.637 28.9938 103.622 28.9938C104.69 28.9938 105.429 28.7474 105.922 28.3367C106.415 27.9261 106.743 27.4332 106.908 26.7762C106.99 26.2012 107.072 25.1334 107.072 23.7371V13.7166H110.686V23.1622C110.686 25.2977 110.604 26.8583 110.357 27.7618C110.193 28.6653 109.782 29.4045 109.29 30.0616C108.797 30.6365 108.058 31.1293 107.154 31.54C106.251 31.9507 105.101 32.115 103.704 32.115C101.98 32.115 100.665 31.9507 99.7619 31.54C98.8584 31.1293 98.2013 30.6365 97.6264 29.9794C97.1335 29.3224 96.805 28.6653 96.6407 28.0082C96.3943 26.9404 96.3122 25.462 96.3122 23.4086V13.7166Z" fill="white" fill-opacity="0.64"/>
<path d="M114.464 31.7864V13.7166H119.885L123.17 25.9548L126.374 13.7166H131.795V31.7043H128.427V17.577L124.895 31.7864H121.364L117.832 17.577V31.7864H114.464Z" fill="white" fill-opacity="0.64"/>
</g>
<defs>
<linearGradient id="paint0_linear_245_6943" x1="18.4071" y1="32.9569" x2="18.4071" y2="4.65083" gradientUnits="userSpaceOnUse">
<stop stop-color="#05AAC5"/>
<stop offset="1" stop-color="#71E0EC"/>
</linearGradient>
<linearGradient id="paint1_linear_245_6943" x1="18.4888" y1="36.4887" x2="18.4888" y2="2.37857" gradientUnits="userSpaceOnUse">
<stop stop-color="#05AAC5"/>
<stop offset="1" stop-color="#71E0EC"/>
</linearGradient>
<linearGradient id="paint2_linear_245_6943" x1="18.4477" y1="40.0205" x2="18.4477" y2="0.0404045" gradientUnits="userSpaceOnUse">
<stop stop-color="#05AAC5"/>
<stop offset="1" stop-color="#71E0EC"/>
</linearGradient>
<clipPath id="clip0_245_6943">
<rect width="131.006" height="40" fill="white" transform="translate(0.788574)"/>
</clipPath>
</defs>
</svg>
