<svg width="190" height="28" viewBox="0 0 190 28" fill="none" xmlns="http://www.w3.org/2000/svg">
<g clip-path="url(#clip0_245_6963)">
<path d="M32.4493 22.0762L27.281 27.6179C27.1692 27.7383 27.0338 27.8343 26.8833 27.9C26.7327 27.9658 26.5702 27.9998 26.406 28H1.90598C1.78912 27.9999 1.67483 27.9658 1.57708 27.9017C1.47933 27.8377 1.40238 27.7466 1.35564 27.6395C1.3089 27.5324 1.2944 27.414 1.31393 27.2988C1.33345 27.1836 1.38614 27.0765 1.46556 26.9908L6.62806 21.4491C6.73985 21.3288 6.87522 21.2327 7.02577 21.167C7.1763 21.1013 7.33879 21.0672 7.50306 21.067H32.0031C32.1209 21.0646 32.237 21.0971 32.3364 21.1605C32.4359 21.2238 32.5146 21.3152 32.5622 21.423C32.61 21.5309 32.6246 21.6505 32.6045 21.7667C32.5843 21.883 32.5304 21.9906 32.4493 22.0762ZM27.281 10.9141C27.1688 10.7943 27.0333 10.6986 26.8828 10.6329C26.7324 10.5672 26.5701 10.5329 26.406 10.5321H1.90598C1.78912 10.5321 1.67483 10.5663 1.57708 10.6303C1.47933 10.6943 1.40238 10.7855 1.35564 10.8926C1.3089 10.9997 1.2944 11.1181 1.31393 11.2333C1.33345 11.3485 1.38614 11.4555 1.46556 11.5412L6.62806 17.0858C6.74026 17.2056 6.87574 17.3013 7.02618 17.367C7.17662 17.4327 7.33891 17.467 7.50306 17.4679H32.0031C32.1197 17.4673 32.2335 17.4327 32.3309 17.3685C32.4283 17.3042 32.5047 17.213 32.5511 17.1061C32.5975 16.9991 32.6118 16.8809 32.5919 16.766C32.5724 16.651 32.5199 16.5443 32.4406 16.4587L27.281 10.9141ZM1.90598 6.93288H26.406C26.5702 6.93273 26.7327 6.89869 26.8833 6.83295C27.0338 6.76724 27.1692 6.67117 27.281 6.55079L32.4493 1.00914C32.5304 0.923544 32.5843 0.815857 32.6045 0.699631C32.6246 0.583405 32.61 0.46383 32.5622 0.355954C32.5146 0.248079 32.4359 0.156722 32.3364 0.09338C32.237 0.0300376 32.1209 -0.00246052 32.0031 -2.50705e-05H7.50306C7.33879 0.000147841 7.1763 0.0341635 7.02577 0.0999011C6.87522 0.165638 6.73985 0.261687 6.62806 0.382059L1.46556 5.92371C1.38614 6.00943 1.33345 6.11647 1.31393 6.23168C1.2944 6.34689 1.3089 6.46528 1.35564 6.57238C1.40238 6.67948 1.47933 6.77062 1.57708 6.83464C1.67483 6.89869 1.78912 6.93282 1.90598 6.93288Z" fill="url(#paint0_linear_245_6963)"/>
<path d="M62.3189 11.8417H49.2114V7.52504H65.7256V3.20838H49.1676C48.6018 3.20531 48.0412 3.3137 47.5174 3.52734C46.9936 3.74102 46.5167 4.05576 46.1148 4.45362C45.7126 4.85148 45.3926 5.32468 45.1733 5.84615C44.9539 6.36765 44.8393 6.92724 44.8364 7.49296V11.868C44.8387 12.4342 44.9525 12.9944 45.1715 13.5165C45.3906 14.0387 45.7102 14.5126 46.1124 14.9111C46.5149 15.3096 46.9918 15.6248 47.5159 15.8389C48.0401 16.0529 48.6015 16.1615 49.1676 16.1584H62.2926V20.475H45.1485V24.7917H62.3189C62.8847 24.7948 63.4453 24.6864 63.9691 24.4727C64.493 24.2591 64.9699 23.9443 65.3718 23.5465C65.774 23.1486 66.0939 22.6754 66.3133 22.1539C66.5326 21.6324 66.6472 21.0728 66.6501 20.5071V16.1321C66.6478 15.5659 66.5341 15.0057 66.315 14.4835C66.096 13.9614 65.7763 13.4875 65.3741 13.089C64.9716 12.6905 64.4947 12.3753 63.9706 12.1613C63.4465 11.9472 62.885 11.8386 62.3189 11.8417Z" fill="white" fill-opacity="0.64"/>
<path d="M87.7114 3.20833H74.5543C73.9876 3.20373 73.4256 3.31097 72.9003 3.52395C72.3753 3.73692 71.8972 4.0514 71.4939 4.44943C71.0902 4.84744 70.7694 5.32114 70.5494 5.8434C70.3292 6.36565 70.2143 6.92621 70.2114 7.49292V20.5071C70.2143 21.0738 70.3292 21.6343 70.5494 22.1566C70.7694 22.6789 71.0902 23.1526 71.4939 23.5506C71.8972 23.9486 72.3753 24.2631 72.9003 24.4761C73.4256 24.689 73.9876 24.7963 74.5543 24.7917H87.7114C88.2772 24.7947 88.8378 24.6863 89.3616 24.4727C89.8855 24.259 90.3624 23.9443 90.7643 23.5464C91.1665 23.1486 91.4864 22.6754 91.7058 22.1539C91.9251 21.6324 92.0397 21.0728 92.0426 20.5071V7.49292C92.0397 6.9272 91.9251 6.36761 91.7058 5.84611C91.4864 5.32464 91.1665 4.85144 90.7643 4.45357C90.3624 4.05571 89.8855 3.74098 89.3616 3.5273C88.8378 3.31365 88.2772 3.20527 87.7114 3.20833ZM87.6793 20.475H74.5864V7.525H87.6735L87.6793 20.475Z" fill="white" fill-opacity="0.64"/>
<path d="M133.795 3.20836H120.961C120.396 3.20529 119.835 3.31368 119.311 3.52732C118.787 3.741 118.31 4.05574 117.909 4.4536C117.506 4.85146 117.186 5.32466 116.967 5.84613C116.748 6.36763 116.633 6.92722 116.63 7.49294V24.7917H121.005V17.7013H133.78V24.7917H138.155V7.49294C138.152 6.92474 138.037 6.36276 137.816 5.83934C137.594 5.31594 137.272 4.84146 136.867 4.44319C136.461 4.04494 135.981 3.73082 135.454 3.51889C134.927 3.30697 134.363 3.20144 133.795 3.20836ZM133.763 13.3846H120.988V7.52502H133.763V13.3846Z" fill="white" fill-opacity="0.64"/>
<path d="M184.88 3.20838H172.047C171.481 3.20531 170.92 3.3137 170.397 3.52734C169.873 3.74102 169.396 4.05576 168.994 4.45362C168.592 4.85148 168.272 5.32468 168.052 5.84615C167.833 6.36765 167.718 6.92724 167.716 7.49296V24.7917H172.091V17.7013H184.836V24.7917H189.211V7.49296C189.208 6.92724 189.094 6.36765 188.874 5.84615C188.655 5.32468 188.335 4.85148 187.933 4.45362C187.531 4.05576 187.054 3.74102 186.53 3.52734C186.007 3.3137 185.446 3.20531 184.88 3.20838ZM184.836 13.3846H172.061V7.52504H184.836V13.3846Z" fill="white" fill-opacity="0.64"/>
<path d="M159.461 20.475H157.711L151.455 5.01668C151.241 4.48337 150.872 4.0263 150.396 3.70413C149.92 3.38192 149.358 3.20928 148.783 3.20835H144.901C144.524 3.20643 144.15 3.27885 143.801 3.42144C143.452 3.56407 143.134 3.77407 142.866 4.03948C142.598 4.30493 142.384 4.62054 142.238 4.96838C142.092 5.3162 142.016 5.68941 142.014 6.06668V24.7917H146.389V7.52502H148.139L154.392 22.9833C154.61 23.5156 154.982 23.9708 155.46 24.2909C155.938 24.6109 156.5 24.7812 157.076 24.78H160.958C161.335 24.7819 161.709 24.7095 162.058 24.5669C162.408 24.4243 162.725 24.2143 162.993 23.9489C163.262 23.6835 163.475 23.3678 163.621 23.02C163.767 22.6722 163.843 22.299 163.845 21.9217V3.20835H159.461V20.475Z" fill="white" fill-opacity="0.64"/>
<path d="M100.282 3.20831H95.9072V20.5071C95.9101 21.074 96.0254 21.6348 96.2456 22.1573C96.4658 22.6797 96.7869 23.1535 97.1906 23.5516C97.5942 23.9497 98.0728 24.2641 98.5981 24.4769C99.1237 24.6897 99.6861 24.7966 100.253 24.7916H113.378V20.475H100.282V3.20831Z" fill="white" fill-opacity="0.64"/>
</g>
<defs>
<linearGradient id="paint0_linear_245_6963" x1="3.94764" y1="28.6679" x2="29.6376" y2="-0.294601" gradientUnits="userSpaceOnUse">
<stop offset="0.08" stop-color="#9945FF"/>
<stop offset="0.3" stop-color="#8752F3"/>
<stop offset="0.5" stop-color="#5497D5"/>
<stop offset="0.6" stop-color="#43B4CA"/>
<stop offset="0.72" stop-color="#28E0B9"/>
<stop offset="0.97" stop-color="#19FB9B"/>
</linearGradient>
<clipPath id="clip0_245_6963">
<rect width="188.417" height="28" fill="white" transform="translate(0.794739)"/>
</clipPath>
</defs>
</svg>
