<svg width="28" height="24" viewBox="0 0 28 24" fill="none" xmlns="http://www.w3.org/2000/svg">
<path d="M10.9923 21.7777C10.186 21.7777 10.323 21.4732 10.045 20.7055L7.67383 12.9019L25.9257 2.07397" fill="#00FFA3" fill-opacity="0.64"/>
<path d="M10.9922 21.7778C11.6144 21.7778 11.8893 21.4933 12.2366 21.1556L15.5552 17.9288L11.4157 15.4326" fill="#00FFA3" fill-opacity="0.64"/>
<path d="M11.4154 15.4331L21.4456 22.8436C22.5902 23.4751 23.4163 23.1482 23.7014 21.7809L27.7842 2.54121C28.2022 0.865314 27.1454 0.105207 26.0504 0.602321L2.0762 9.84668C0.439734 10.5031 0.449274 11.416 1.77791 11.8229L7.93023 13.7431L22.1735 4.75717C22.8459 4.34943 23.463 4.56864 22.9565 5.01817" fill="#00FFA3"/>
</svg>
