<svg width="28" height="28" viewBox="0 0 28 28" fill="none" xmlns="http://www.w3.org/2000/svg">
<path d="M28 5.25C26.95 5.775 25.9 5.95 24.675 6.125C25.9 5.425 26.775 4.375 27.125 2.975C26.075 3.675 24.85 4.025 23.45 4.375C22.4 3.325 20.825 2.625 19.25 2.625C16.275 2.625 13.65 5.25 13.65 8.4C13.65 8.925 13.65 9.275 13.825 9.625C9.1 9.45 4.725 7.175 1.925 3.675C1.4 4.55 1.225 5.425 1.225 6.65C1.225 8.575 2.275 10.325 3.85 11.375C2.975 11.375 2.1 11.025 1.225 10.675C1.225 13.475 3.15 15.75 5.775 16.275C5.25 16.45 4.725 16.45 4.2 16.45C3.85 16.45 3.5 16.45 3.15 16.275C3.85 18.55 5.95 20.3 8.575 20.3C6.65 21.875 4.2 22.75 1.4 22.75H0C2.625 24.325 5.6 25.375 8.75 25.375C19.25 25.375 25.025 16.625 25.025 9.1V8.4C26.25 7.525 27.3 6.475 28 5.25Z" fill="#00FFA3"/>
</svg>
