<svg width="20" height="20" viewBox="0 0 20 20" fill="none" xmlns="http://www.w3.org/2000/svg">
<path d="M18 3.89415C17.405 4.21538 16.771 4.42831 16.11 4.53169C16.79 4.032 17.309 3.24677 17.553 2.30031C16.919 2.76554 16.219 3.09415 15.473 3.27754C14.871 2.48862 14.013 2 13.077 2C11.261 2 9.799 3.81415 9.799 6.03815C9.799 6.35815 9.821 6.66585 9.875 6.95877C7.148 6.79508 4.735 5.18646 3.114 2.736C2.831 3.34031 2.665 4.032 2.665 4.77662C2.665 6.17477 3.25 7.41415 4.122 8.13169C3.595 8.11938 3.078 7.93108 2.64 7.63446C2.64 7.64677 2.64 7.66277 2.64 7.67877C2.64 9.64062 3.777 11.2702 5.268 11.6455C5.001 11.7354 4.71 11.7785 4.408 11.7785C4.198 11.7785 3.986 11.7637 3.787 11.7095C4.212 13.3083 5.418 14.4837 6.852 14.5218C5.736 15.5963 4.319 16.2437 2.785 16.2437C2.516 16.2437 2.258 16.2289 2 16.1883C3.453 17.3415 5.175 18 7.032 18C13.068 18 16.368 11.8462 16.368 6.512C16.368 6.33354 16.363 6.16123 16.356 5.99015C17.007 5.42154 17.554 4.71138 18 3.89415Z" fill="#979797"/>
</svg>
