<svg width="20" height="20" viewBox="0 0 20 20" fill="none" xmlns="http://www.w3.org/2000/svg">
<path d="M18.9974 5.48737C18.7812 4.68333 18.1472 4.04951 17.3433 3.833C15.8746 3.43115 9.99978 3.43115 9.99978 3.43115C9.99978 3.43115 4.12517 3.43115 2.65649 3.81777C1.86802 4.03404 1.21862 4.68344 1.00235 5.48737C0.615845 6.95594 0.615845 10.0016 0.615845 10.0016C0.615845 10.0016 0.615845 13.0625 1.00235 14.5157C1.21885 15.3197 1.85256 15.9535 2.6566 16.17C4.14063 16.572 10 16.572 10 16.572C10 16.572 15.8746 16.572 17.3433 16.1853C18.1473 15.969 18.7812 15.3351 18.9977 14.5312C19.3841 13.0625 19.3841 10.017 19.3841 10.017C19.3841 10.017 19.3995 6.95594 18.9974 5.48737ZM8.12936 12.8152V7.18791L13.0146 10.0016L8.12936 12.8152Z" fill="#979797"/>
</svg>
