<svg width="120" height="104" viewBox="0 0 120 104" fill="none" xmlns="http://www.w3.org/2000/svg">
<path d="M57.2416 52C57.2416 39.5242 49.2171 28.8895 38.0595 24.9803C39.802 22.0792 42.1214 19.5189 44.8533 17.5033C45.6345 16.9267 45.8004 15.8263 45.2241 15.0452C44.6475 14.2637 43.5469 14.0983 42.7659 14.6744C39.4043 17.155 36.5913 20.362 34.5656 24.0018C32.9548 23.6601 31.2945 23.4548 29.5969 23.3976C32.1471 18.1314 36.0115 13.6225 40.8799 10.2658C46.5239 6.37445 53.1354 4.31781 60.0002 4.31781C65.7368 4.31781 71.407 5.79016 76.398 8.57547C77.0845 8.95867 77.9419 8.83961 78.4976 8.28367L81.3996 5.38211L82.361 17.8907L69.8524 16.9293L72.3933 14.3882C72.8018 13.9797 72.9837 13.3961 72.8791 12.8277C72.7746 12.2591 72.3973 11.7784 71.8699 11.542C68.1204 9.85891 64.1269 9.00555 60 9.00555C56.6051 9.00555 53.277 9.5882 50.108 10.7378C49.1953 11.0687 48.7238 12.077 49.0547 12.9897C49.3859 13.9026 50.3939 14.3732 51.3066 14.0427C54.0902 13.033 57.015 12.5212 60 12.5212C62.7502 12.5212 65.4328 12.9522 68.0046 13.8053L67.0962 14.7138C66.1627 15.647 65.8671 16.9961 66.3251 18.2343C66.7831 19.4725 67.8853 20.3048 69.2018 20.406L82.2949 21.4122C83.268 21.486 84.2224 21.1345 84.9129 20.4438C85.6031 19.7535 85.9561 18.7991 85.8813 17.826L84.8752 4.73242C84.7739 3.41617 83.9419 2.31391 82.7034 1.85594C81.4657 1.39773 80.1162 1.69352 79.1831 2.6268L76.9327 4.8768C71.7136 2.2075 65.8877 0.802422 60 0.802422C52.4191 0.802422 45.1174 3.07398 38.8842 7.37172C33.007 11.4238 28.4578 17.001 25.6805 23.5295C11.2751 25.0061 0 37.2109 0 52C0 67.7816 12.8393 80.6207 28.6209 80.6207C44.4026 80.6207 57.2416 67.7816 57.2416 52ZM28.6209 77.1051C14.7778 77.1051 3.51562 65.8431 3.51562 52C3.51562 38.1569 14.7778 26.8949 28.6209 26.8949C42.4641 26.8949 53.7262 38.1571 53.7262 52C53.7262 65.8429 42.4641 77.1051 28.6209 77.1051Z" fill="#00FFA3" fill-opacity="0.8"/>
<path d="M91.3793 31.5948C80.1277 31.5948 70.9737 40.7486 70.9737 52C70.9737 63.2514 80.1277 72.4052 91.3793 72.4052C102.631 72.4052 111.784 63.2514 111.784 52C111.784 40.7486 102.631 31.5948 91.3793 31.5948ZM91.3793 68.8895C82.0662 68.8895 74.4893 61.3129 74.4893 52C74.4893 42.6871 82.066 35.1105 91.3793 35.1105C100.692 35.1105 108.269 42.6871 108.269 52C108.269 61.3129 100.692 68.8895 91.3793 68.8895Z" fill="#00FFA3" fill-opacity="0.8"/>
<path d="M120 52C120 36.2184 107.161 23.3793 91.3793 23.3793C75.5977 23.3793 62.7584 36.2184 62.7584 52C62.7584 64.4774 70.7848 75.1134 81.945 79.0211C77.3295 86.7505 69.082 91.4788 60 91.4788C57.2522 91.4788 54.5705 91.0473 51.997 90.1933L52.9038 89.2865C53.8373 88.3532 54.1329 87.0041 53.6749 85.7659C53.217 84.528 52.1147 83.6957 50.7982 83.5945L37.7048 82.5883C36.7298 82.5138 35.7773 82.8663 35.0869 83.5567C34.3966 84.247 34.0434 85.2013 34.1184 86.1745L35.1246 99.2678C35.2259 100.584 36.0577 101.686 37.2961 102.145C38.5341 102.602 39.8836 102.307 40.8169 101.374L43.0692 99.1213C48.2918 101.792 54.1163 103.198 60 103.198C68.9454 103.198 77.6016 99.9693 84.3741 94.1071C85.1081 93.4717 85.1883 92.3617 84.5529 91.6277C83.917 90.8931 82.807 90.8137 82.0734 91.4488C75.9396 96.7581 68.1005 99.6822 60 99.6822C54.2684 99.6822 48.5988 98.2091 43.6043 95.422C42.918 95.039 42.0607 95.1583 41.5048 95.7138L38.6004 98.6181L37.6392 86.1093L50.148 87.0707L47.6091 89.6099C47.2003 90.0184 47.0187 90.6018 47.1232 91.1704C47.2277 91.739 47.6048 92.2197 48.1322 92.4562C51.8843 94.1409 55.8773 94.9947 60 94.9947C65.4816 94.9947 70.8253 93.4548 75.4533 90.5411C79.6226 87.9163 83.0531 84.2866 85.436 79.9987C87.0466 80.3402 88.7067 80.5455 90.4038 80.6027C89.4659 82.5355 88.343 84.3803 87.0497 86.1074C86.468 86.8846 86.6262 87.9864 87.4034 88.5681C87.7195 88.8048 88.0891 88.9188 88.4555 88.9188C88.9903 88.9188 89.5186 88.6757 89.8641 88.2145C91.6584 85.8177 93.1531 83.2141 94.3209 80.4707C108.726 78.993 120 66.7886 120 52ZM91.3793 77.1051C77.5362 77.1051 66.274 65.8429 66.274 52C66.274 38.1571 77.5362 26.8949 91.3793 26.8949C105.222 26.8949 116.484 38.1569 116.484 52C116.484 65.8431 105.222 77.1051 91.3793 77.1051Z" fill="#00FFA3" fill-opacity="0.8"/>
<path d="M41.0086 48.9271C40.6615 47.8586 39.7552 47.0948 38.6435 46.9333L33.5006 46.1859L31.2005 41.5258C30.7034 40.5182 29.6967 39.8924 28.5734 39.8924C27.45 39.8924 26.4434 40.5182 25.946 41.5255L23.6461 46.1859L18.5032 46.9333C17.3916 47.0945 16.4852 47.8586 16.1381 48.9271C15.791 49.9956 16.0751 51.1464 16.8795 51.9304L20.6011 55.558L19.7224 60.6801C19.5323 61.7873 19.9791 62.8853 20.888 63.5458C21.4015 63.9189 22.0022 64.1083 22.6071 64.1083C23.0726 64.1083 23.5406 63.9958 23.9733 63.7687L28.5734 61.3502L33.1732 63.7687C34.1677 64.2913 35.3501 64.206 36.2585 63.5458C37.1674 62.8855 37.6141 61.7873 37.4241 60.6801L36.5454 55.558L40.2668 51.9304C41.0716 51.1462 41.3557 49.9954 41.0086 48.9271ZM33.8712 53.2553C33.1807 53.9284 32.8657 54.8978 33.0286 55.8482L33.7587 60.104L29.9367 58.0947C29.0829 57.6461 28.0641 57.6461 27.2102 58.0947L23.3883 60.104L24.1184 55.8487C24.2815 54.898 23.9665 53.9287 23.2758 53.2553L20.1837 50.2412L24.4563 49.6204C25.4107 49.4819 26.2352 48.883 26.6625 48.0177L28.5734 44.1459L30.4842 48.0177C30.911 48.8828 31.736 49.4821 32.6902 49.6206L36.963 50.2415L33.8712 53.2553Z" fill="#00FFA3" fill-opacity="0.8"/>
<path d="M93.7439 50.2436C92.1396 49.6764 90.3652 48.9916 89.3698 48.2104C89.0529 47.962 88.9156 47.3952 89.0278 46.7999C89.1429 46.1891 89.5531 45.4502 90.3591 45.2076C92.299 44.6228 93.7613 45.8713 93.8492 45.9484C94.5607 46.5981 95.6635 46.555 96.3213 45.8479C96.9827 45.1375 96.9427 44.0252 96.232 43.3635C96.1552 43.2918 94.9376 42.1844 93.0281 41.7283V40.9466C93.0281 39.9756 92.2411 39.1888 91.2703 39.1888C90.2993 39.1888 89.5125 39.9756 89.5125 40.9466V41.7953C89.4567 41.8108 89.4014 41.8241 89.3452 41.8413C87.4095 42.4244 85.9641 44.0748 85.5731 46.1488C85.2136 48.0578 85.8368 49.9075 87.1999 50.9765C88.3247 51.8591 89.8812 52.607 92.5723 53.5584C94.3749 54.1956 94.3357 55.6548 94.2354 56.2527C94.032 57.4635 93.0136 58.7718 91.2586 58.7835C89.543 58.7976 89.0074 58.7097 87.6881 57.847C86.8758 57.3156 85.7867 57.543 85.2549 58.3558C84.7233 59.1681 84.9511 60.2575 85.7637 60.7891C87.1852 61.7191 88.2328 62.0945 89.5125 62.2307V63.0534C89.5125 64.0244 90.2993 64.8112 91.2703 64.8112C92.2411 64.8112 93.0281 64.0244 93.0281 63.0534V62.0587C95.6485 61.333 97.327 59.0695 97.7025 56.8354C98.1952 53.9038 96.6045 51.2547 93.7439 50.2436Z" fill="#00FFA3" fill-opacity="0.8"/>
<path d="M28.6209 31.5948C18.9696 31.5948 10.5621 38.4477 8.63016 47.8893C8.4354 48.8406 9.04875 49.7692 9.99985 49.964C10.9502 50.1576 11.8798 49.5452 12.0743 48.5943C13.6732 40.7812 20.632 35.1105 28.6209 35.1105C37.9341 35.1105 45.5107 42.6871 45.5107 52C45.5107 61.3129 37.9341 68.8895 28.6209 68.8895C20.6644 68.8895 13.7112 63.2463 12.0879 55.4711C11.8896 54.5207 10.9589 53.913 10.0078 54.1098C9.05743 54.3084 8.44782 55.2395 8.64633 56.1899C10.6081 65.5858 19.0085 72.4052 28.6209 72.4052C39.8726 72.4052 49.0263 63.2514 49.0263 52C49.0263 40.7486 39.8726 31.5948 28.6209 31.5948Z" fill="#00FFA3" fill-opacity="0.8"/>
</svg>
