<svg width="94" height="114" viewBox="0 0 94 114" fill="none" xmlns="http://www.w3.org/2000/svg">
<path d="M63.875 60.75H56.375C55.8777 60.75 55.4008 60.9475 55.0492 61.2992C54.6975 61.6508 54.5 62.1277 54.5 62.625V75.75H39.5V62.625C39.5 62.1277 39.3025 61.6508 38.9508 61.2992C38.5992 60.9475 38.1223 60.75 37.625 60.75H30.125C29.6277 60.75 29.1508 60.9475 28.7992 61.2992C28.4475 61.6508 28.25 62.1277 28.25 62.625V77.625C28.253 80.1105 29.2417 82.4933 30.9992 84.2508C32.7567 86.0083 35.1395 86.997 37.625 87H56.375C58.8605 86.997 61.2433 86.0083 63.0008 84.2508C64.7583 82.4933 65.747 80.1105 65.75 77.625V62.625C65.75 62.1277 65.5525 61.6508 65.2008 61.2992C64.8492 60.9475 64.3723 60.75 63.875 60.75ZM62 64.5V68.25H58.25V64.5H62ZM35.75 64.5V68.25H32V64.5H35.75ZM56.375 83.25H37.625C36.1332 83.25 34.7024 82.6574 33.6475 81.6025C32.5926 80.5476 32 79.1168 32 77.625V72H35.75V75.75C35.75 76.7446 36.1451 77.6984 36.8484 78.4017C37.5516 79.1049 38.5054 79.5 39.5 79.5H54.5C55.4946 79.5 56.4484 79.1049 57.1517 78.4017C57.8549 77.6984 58.25 76.7446 58.25 75.75V72H62V77.625C62 79.1168 61.4074 80.5476 60.3525 81.6025C59.2976 82.6574 57.8668 83.25 56.375 83.25Z" fill="#DC1FFF" fill-opacity="0.64"/>
<path d="M93.7325 35.6569C93.5905 35.3143 93.3501 35.0216 93.0417 34.8157C92.7333 34.6098 92.3708 34.4999 92 34.5H72.1438C73.3191 30.5805 73.5619 26.4405 72.8528 22.4105C72.1436 18.3805 70.5021 14.5721 68.0593 11.2893C65.6166 8.00646 62.4402 5.3402 58.7837 3.50332C55.1272 1.66644 51.0919 0.709816 47 0.709816C42.9081 0.709816 38.8728 1.66644 35.2163 3.50332C31.5598 5.3402 28.3834 8.00646 25.9407 11.2893C23.4979 14.5721 21.8564 18.3805 21.1472 22.4105C20.4381 26.4405 20.6809 30.5805 21.8563 34.5H2C1.50272 34.5 1.02581 34.6975 0.674175 35.0492C0.322544 35.4008 0.125 35.8777 0.125 36.375V103.875C0.127977 106.36 1.11665 108.743 2.87416 110.501C4.63167 112.258 7.01451 113.247 9.5 113.25H84.5C86.9855 113.247 89.3683 112.258 91.1258 110.501C92.8833 108.743 93.872 106.36 93.875 103.875V36.3881C93.8765 36.1373 93.8281 35.8887 93.7325 35.6569ZM3.875 53.25H90.125V98.25H3.875V53.25ZM90.125 46.8488L87.1513 43.875L90.125 40.9012V46.8488ZM87.4737 38.25L83.1744 42.5494C82.8229 42.901 82.6254 43.3778 82.6254 43.875C82.6254 44.3722 82.8229 44.849 83.1744 45.2006L87.4737 49.5H60.4512C64.8916 46.8355 68.4495 42.9229 70.6813 38.25H87.4737ZM47 4.5C51.4501 4.5 55.8002 5.8196 59.5003 8.29193C63.2004 10.7643 66.0843 14.2783 67.7873 18.3896C69.4903 22.501 69.9358 27.025 69.0677 31.3895C68.1995 35.7541 66.0566 39.7632 62.9099 42.9099C59.7632 46.0566 55.7541 48.1995 51.3895 49.0677C47.025 49.9358 42.501 49.4903 38.3896 47.7873C34.2783 46.0843 30.7643 43.2004 28.2919 39.5003C25.8196 35.8002 24.5 31.4501 24.5 27C24.5065 21.0346 26.8791 15.3154 31.0972 11.0972C35.3154 6.87905 41.0346 4.50645 47 4.5ZM23.3188 38.25C25.5505 42.9229 29.1084 46.8355 33.5488 49.5H6.52625L10.8256 45.2006C11.1771 44.849 11.3746 44.3722 11.3746 43.875C11.3746 43.3778 11.1771 42.901 10.8256 42.5494L6.52625 38.25H23.3188ZM3.875 40.9012L6.84875 43.875L3.875 46.8488V40.9012ZM84.5 109.5H9.5C8.00816 109.5 6.57742 108.907 5.52252 107.852C4.46763 106.798 3.875 105.367 3.875 103.875V102H90.125V103.875C90.125 105.367 89.5324 106.798 88.4775 107.852C87.4226 108.907 85.9918 109.5 84.5 109.5Z" fill="#DC1FFF" fill-opacity="0.64"/>
<path d="M48.875 32.625H45.125C44.6277 32.625 44.1508 32.4275 43.7992 32.0758C43.4475 31.7242 43.25 31.2473 43.25 30.75H39.5C39.5 32.2418 40.0926 33.6726 41.1475 34.7275C42.2024 35.7824 43.6332 36.375 45.125 36.375V38.25H48.875V36.375C50.3668 36.375 51.7976 35.7824 52.8525 34.7275C53.9074 33.6726 54.5 32.2418 54.5 30.75C54.5 29.2582 53.9074 27.8274 52.8525 26.7725C51.7976 25.7176 50.3668 25.125 48.875 25.125H45.125C44.6277 25.125 44.1508 24.9275 43.7992 24.5758C43.4475 24.2242 43.25 23.7473 43.25 23.25C43.25 22.7527 43.4475 22.2758 43.7992 21.9242C44.1508 21.5725 44.6277 21.375 45.125 21.375H48.875C49.3723 21.375 49.8492 21.5725 50.2008 21.9242C50.5525 22.2758 50.75 22.7527 50.75 23.25H54.5C54.5 21.7582 53.9074 20.3274 52.8525 19.2725C51.7976 18.2176 50.3668 17.625 48.875 17.625V15.75H45.125V17.625C43.6332 17.625 42.2024 18.2176 41.1475 19.2725C40.0926 20.3274 39.5 21.7582 39.5 23.25C39.5 24.7418 40.0926 26.1726 41.1475 27.2275C42.2024 28.2824 43.6332 28.875 45.125 28.875H48.875C49.3723 28.875 49.8492 29.0725 50.2008 29.4242C50.5525 29.7758 50.75 30.2527 50.75 30.75C50.75 31.2473 50.5525 31.7242 50.2008 32.0758C49.8492 32.4275 49.3723 32.625 48.875 32.625Z" fill="#DC1FFF" fill-opacity="0.64"/>
<path d="M47 45.75C50.7084 45.75 54.3335 44.6503 57.4169 42.59C60.5004 40.5298 62.9036 37.6014 64.3227 34.1753C65.7419 30.7492 66.1132 26.9792 65.3897 23.3421C64.6662 19.7049 62.8805 16.364 60.2582 13.7417C57.636 11.1195 54.2951 9.33375 50.6579 8.61027C47.0208 7.8868 43.2508 8.25811 39.8247 9.67726C36.3986 11.0964 33.4702 13.4996 31.4099 16.5831C29.3497 19.6665 28.25 23.2916 28.25 27C28.2555 31.9711 30.2327 36.7371 33.7478 40.2522C37.2629 43.7673 42.0289 45.7445 47 45.75ZM47 12C49.9667 12 52.8668 12.8797 55.3335 14.528C57.8003 16.1762 59.7229 18.5189 60.8582 21.2597C61.9935 24.0006 62.2906 27.0166 61.7118 29.9263C61.133 32.8361 59.7044 35.5088 57.6066 37.6066C55.5088 39.7044 52.8361 41.133 49.9263 41.7118C47.0166 42.2905 44.0006 41.9935 41.2597 40.8582C38.5189 39.7229 36.1762 37.8003 34.528 35.3335C32.8797 32.8668 32 29.9667 32 27C32.0045 23.0231 33.5863 19.2104 36.3983 16.3983C39.2104 13.5862 43.0231 12.0045 47 12Z" fill="#DC1FFF" fill-opacity="0.64"/>
<path d="M84.5 27C85.6125 27 86.7001 26.6701 87.6251 26.052C88.5501 25.4339 89.2711 24.5554 89.6968 23.5276C90.1226 22.4998 90.234 21.3688 90.0169 20.2776C89.7999 19.1865 89.2641 18.1842 88.4775 17.3975C87.6908 16.6108 86.6885 16.0751 85.5974 15.8581C84.5062 15.641 83.3752 15.7524 82.3474 16.1782C81.3196 16.6039 80.4411 17.3249 79.823 18.2499C79.2049 19.1749 78.875 20.2625 78.875 21.375C78.875 22.8668 79.4676 24.2976 80.5225 25.3525C81.5774 26.4074 83.0082 27 84.5 27ZM84.5 19.5C84.8708 19.5 85.2333 19.61 85.5417 19.816C85.85 20.022 86.0904 20.3149 86.2323 20.6575C86.3742 21.0001 86.4113 21.3771 86.339 21.7408C86.2666 22.1045 86.088 22.4386 85.8258 22.7008C85.5636 22.963 85.2295 23.1416 84.8658 23.214C84.5021 23.2863 84.1251 23.2492 83.7825 23.1073C83.4399 22.9654 83.147 22.725 82.941 22.4167C82.735 22.1083 82.625 21.7458 82.625 21.375C82.625 20.8777 82.8225 20.4008 83.1742 20.0492C83.5258 19.6975 84.0027 19.5 84.5 19.5Z" fill="#DC1FFF" fill-opacity="0.64"/>
<path d="M82.625 8.25H86.375V12H82.625V8.25Z" fill="#DC1FFF" fill-opacity="0.64"/>
<path d="M82.625 0.75H86.375V4.5H82.625V0.75Z" fill="#DC1FFF" fill-opacity="0.64"/>
<path d="M11.375 15.75C12.4875 15.75 13.5751 15.4201 14.5001 14.802C15.4251 14.1839 16.1461 13.3054 16.5718 12.2776C16.9976 11.2498 17.109 10.1188 16.8919 9.02762C16.6749 7.93647 16.1391 6.93419 15.3525 6.14752C14.5658 5.36085 13.5635 4.82512 12.4724 4.60808C11.3812 4.39104 10.2502 4.50243 9.2224 4.92818C8.19457 5.35392 7.31607 6.07489 6.69798 6.99992C6.0799 7.92494 5.75 9.01248 5.75 10.125C5.75 11.6168 6.34263 13.0476 7.39752 14.1025C8.45241 15.1574 9.88316 15.75 11.375 15.75ZM11.375 8.25C11.7458 8.25 12.1084 8.35997 12.4167 8.56599C12.725 8.77202 12.9654 9.06486 13.1073 9.40747C13.2492 9.75008 13.2863 10.1271 13.214 10.4908C13.1416 10.8545 12.963 11.1886 12.7008 11.4508C12.4386 11.713 12.1045 11.8916 11.7408 11.964C11.3771 12.0363 11.0001 11.9992 10.6575 11.8573C10.3149 11.7154 10.022 11.475 9.81599 11.1667C9.60997 10.8584 9.5 10.4958 9.5 10.125C9.5 9.62772 9.69754 9.1508 10.0492 8.79917C10.4008 8.44754 10.8777 8.25 11.375 8.25Z" fill="#DC1FFF" fill-opacity="0.64"/>
<path d="M9.5 19.5H13.25V23.25H9.5V19.5Z" fill="#DC1FFF" fill-opacity="0.64"/>
<path d="M9.5 27H13.25V30.75H9.5V27Z" fill="#DC1FFF" fill-opacity="0.64"/>
</svg>
