<svg width="120" height="120" viewBox="0 0 120 120" fill="none" xmlns="http://www.w3.org/2000/svg">
<path d="M60 65.0391C75.2094 65.0391 87.5391 52.7094 87.5391 37.5C87.5391 22.2906 75.2094 9.96094 60 9.96094C44.7906 9.96094 32.4609 22.2906 32.4609 37.5C32.4609 52.7094 44.7906 65.0391 60 65.0391Z" fill="#282A2D"/>
<path d="M114.141 55.8984C111.867 55.8984 110.039 54.0703 110.039 51.7969C110.039 49.5234 108.211 47.6953 105.938 47.6953C103.664 47.6953 101.836 49.5234 101.836 51.7969C101.836 54.0703 100.008 55.8984 97.7344 55.8984C95.4609 55.8984 93.6328 57.7266 93.6328 60C93.6328 62.2734 95.4609 64.1016 97.7344 64.1016C100.008 64.1016 101.836 65.9297 101.836 68.2031C101.836 70.4766 103.664 72.3047 105.938 72.3047C108.211 72.3047 110.039 70.4766 110.039 68.2031C110.039 65.9297 111.867 64.1016 114.141 64.1016C116.414 64.1016 118.242 62.2734 118.242 60C118.242 57.7266 116.414 55.8984 114.141 55.8984Z" fill="white" fill-opacity="0.1"/>
<path d="M22.2656 9.96094C19.9922 9.96094 18.1641 8.13281 18.1641 5.85938C18.1641 3.58594 16.3359 1.75781 14.0625 1.75781C11.7891 1.75781 9.96094 3.58594 9.96094 5.85938C9.96094 8.13281 8.13281 9.96094 5.85938 9.96094C3.58594 9.96094 1.75781 11.7891 1.75781 14.0625C1.75781 16.3359 3.58594 18.1641 5.85938 18.1641C8.13281 18.1641 9.96094 19.9922 9.96094 22.2656C9.96094 24.5391 11.7891 26.3672 14.0625 26.3672C16.3359 26.3672 18.1641 24.5391 18.1641 22.2656C18.1641 19.9922 19.9922 18.1641 22.2656 18.1641C24.5391 18.1641 26.3672 16.3359 26.3672 14.0625C26.3672 11.7891 24.5391 9.96094 22.2656 9.96094Z" fill="white" fill-opacity="0.1"/>
<path d="M26.2969 65.0391C28.5621 65.0391 30.3984 63.2027 30.3984 60.9375C30.3984 58.6723 28.5621 56.8359 26.2969 56.8359C24.0316 56.8359 22.1953 58.6723 22.1953 60.9375C22.1953 63.2027 24.0316 65.0391 26.2969 65.0391Z" fill="white" fill-opacity="0.1"/>
<path d="M104.344 16.9453C106.609 16.9453 108.445 15.109 108.445 12.8437C108.445 10.5785 106.609 8.74219 104.344 8.74219C102.079 8.74219 100.242 10.5785 100.242 12.8437C100.242 15.109 102.079 16.9453 104.344 16.9453Z" fill="white" fill-opacity="0.1"/>
<path d="M60 66.7969C43.8516 66.7969 30.7031 53.6484 30.7031 37.5C30.7031 21.3516 43.8516 8.20312 60 8.20312C76.1484 8.20312 89.2969 21.3516 89.2969 37.5C89.2969 53.6484 76.1484 66.7969 60 66.7969ZM60 11.7188C45.7734 11.7188 34.2188 23.2734 34.2188 37.5C34.2188 51.7266 45.7734 63.2812 60 63.2812C74.2266 63.2812 85.7813 51.7266 85.7813 37.5C85.7813 23.2734 74.2266 11.7188 60 11.7188Z" fill="white" fill-opacity="0.8"/>
<path d="M60 58.5938C48.375 58.5938 38.9062 49.125 38.9062 37.5C38.9062 25.875 48.375 16.4062 60 16.4062C71.625 16.4062 81.0938 25.875 81.0938 37.5C81.0938 41.4375 79.9922 45.2812 77.9297 48.6328C77.4141 49.4531 76.3359 49.7109 75.5156 49.1953C74.6953 48.6797 74.4375 47.6016 74.9531 46.7813C76.6641 43.9922 77.5781 40.7812 77.5781 37.5C77.5781 27.7969 69.7031 19.9219 60 19.9219C50.2969 19.9219 42.4219 27.7969 42.4219 37.5C42.4219 47.2031 50.2969 55.0781 60 55.0781C63.4922 55.0781 66.8672 54.0469 69.75 52.125C70.5469 51.5859 71.6484 51.7969 72.1875 52.6172C72.7266 53.4141 72.5156 54.5156 71.6953 55.0547C68.2266 57.375 64.1953 58.5938 60 58.5938Z" fill="white" fill-opacity="0.8"/>
<path d="M60.0938 35.7187C59.4844 35.6016 58.9453 35.2734 58.5703 34.7578C58.2188 34.2422 58.0781 33.6328 58.1719 33C58.4063 31.7344 59.625 30.8672 60.8906 31.1016C61.4297 31.1953 61.8985 31.4531 62.25 31.875C62.8828 32.6016 64.0078 32.6719 64.7344 32.0391C65.461 31.4062 65.5313 30.2812 64.8984 29.5547C64.0781 28.6172 62.9531 27.9609 61.7344 27.7031V26.3672C61.7344 25.4062 60.9375 24.6094 59.9766 24.6094C59.0156 24.6094 58.2188 25.4062 58.2188 26.3672V28.0078C56.4375 28.7578 55.0781 30.3516 54.7266 32.3906C54.4453 33.9375 54.7969 35.4844 55.6875 36.7734C56.5781 38.0625 57.9375 38.9062 59.461 39.1875C60.0703 39.3047 60.6094 39.6328 60.9844 40.1484C61.336 40.6641 61.4766 41.2734 61.3828 41.9062C61.1485 43.1719 59.9297 44.0391 58.6641 43.8047C58.2891 43.7344 57.961 43.5938 57.6563 43.3828C56.8828 42.7969 55.7813 42.9609 55.1953 43.7344C54.6094 44.5078 54.7735 45.6094 55.5469 46.1953C56.2735 46.7344 57.1406 47.1094 58.0547 47.2734C58.1016 47.2734 58.1719 47.2969 58.2188 47.2969V48.6328C58.2188 49.5938 59.0156 50.3906 59.9766 50.3906C60.9375 50.3906 61.7344 49.5938 61.7344 48.6328V46.7109C63.3047 45.8906 64.5 44.3906 64.8281 42.5156C65.1094 40.9687 64.7578 39.4219 63.8672 38.1328C62.9766 36.8437 61.6406 36 60.0938 35.7187Z" fill="white" fill-opacity="0.8"/>
<path d="M105.938 74.0625C102.703 74.0625 100.078 71.4375 100.078 68.2031C100.078 66.9141 99.0234 65.8594 97.7344 65.8594C94.5 65.8594 91.875 63.2344 91.875 60C91.875 56.7656 94.5 54.1406 97.7344 54.1406C99.0234 54.1406 100.078 53.0859 100.078 51.7969C100.078 48.5625 102.703 45.9375 105.938 45.9375C109.172 45.9375 111.797 48.5625 111.797 51.7969C111.797 53.0859 112.852 54.1406 114.141 54.1406C117.375 54.1406 120 56.7656 120 60C120 63.2344 117.375 65.8594 114.141 65.8594C112.852 65.8594 111.797 66.9141 111.797 68.2031C111.797 71.4375 109.172 74.0625 105.938 74.0625ZM105.938 49.4531C104.648 49.4531 103.594 50.5078 103.594 51.7969C103.594 55.0312 100.969 57.6562 97.7344 57.6562C96.4453 57.6562 95.3906 58.7109 95.3906 60C95.3906 61.2891 96.4453 62.3438 97.7344 62.3438C100.969 62.3438 103.594 64.9688 103.594 68.2031C103.594 69.4922 104.648 70.5469 105.938 70.5469C107.227 70.5469 108.281 69.4922 108.281 68.2031C108.281 64.9688 110.906 62.3438 114.141 62.3438C115.43 62.3438 116.484 61.2891 116.484 60C116.484 58.7109 115.43 57.6562 114.141 57.6562C110.906 57.6562 108.281 55.0312 108.281 51.7969C108.281 50.5078 107.227 49.4531 105.938 49.4531Z" fill="white" fill-opacity="0.8"/>
<path d="M14.0625 28.125C10.8281 28.125 8.20312 25.5 8.20312 22.2656C8.20312 20.9766 7.14844 19.9219 5.85938 19.9219C2.625 19.9219 0 17.2969 0 14.0625C0 10.8281 2.625 8.20312 5.85938 8.20312C7.14844 8.20312 8.20312 7.14844 8.20312 5.85938C8.20312 2.625 10.8281 0 14.0625 0C17.2969 0 19.9219 2.625 19.9219 5.85938C19.9219 7.14844 20.9766 8.20312 22.2656 8.20312C25.5 8.20312 28.125 10.8281 28.125 14.0625C28.125 17.2969 25.5 19.9219 22.2656 19.9219C20.9766 19.9219 19.9219 20.9766 19.9219 22.2656C19.9219 25.5 17.2969 28.125 14.0625 28.125ZM14.0625 3.51562C12.7734 3.51562 11.7188 4.57031 11.7188 5.85938C11.7188 9.09375 9.09375 11.7188 5.85938 11.7188C4.57031 11.7188 3.51562 12.7734 3.51562 14.0625C3.51562 15.3516 4.57031 16.4062 5.85938 16.4062C9.09375 16.4062 11.7188 19.0312 11.7188 22.2656C11.7188 23.5547 12.7734 24.6094 14.0625 24.6094C15.3516 24.6094 16.4062 23.5547 16.4062 22.2656C16.4062 19.0312 19.0312 16.4062 22.2656 16.4062C23.5547 16.4062 24.6094 15.3516 24.6094 14.0625C24.6094 12.7734 23.5547 11.7188 22.2656 11.7188C19.0312 11.7188 16.4062 9.09375 16.4062 5.85938C16.4062 4.57031 15.3516 3.51562 14.0625 3.51562Z" fill="white" fill-opacity="0.8"/>
<path d="M26.2969 66.7969C23.0625 66.7969 20.4375 64.1719 20.4375 60.9375C20.4375 57.7031 23.0625 55.0781 26.2969 55.0781C29.5312 55.0781 32.1562 57.7031 32.1562 60.9375C32.1562 64.1719 29.5312 66.7969 26.2969 66.7969ZM26.2969 58.5938C25.0078 58.5938 23.9531 59.6484 23.9531 60.9375C23.9531 62.2266 25.0078 63.2812 26.2969 63.2812C27.5859 63.2812 28.6406 62.2266 28.6406 60.9375C28.6406 59.6484 27.5859 58.5938 26.2969 58.5938Z" fill="white" fill-opacity="0.8"/>
<path d="M104.344 18.7031C101.109 18.7031 98.4844 16.0781 98.4844 12.8437C98.4844 9.60937 101.109 6.98438 104.344 6.98438C107.578 6.98438 110.203 9.60937 110.203 12.8437C110.203 16.0781 107.578 18.7031 104.344 18.7031ZM104.344 10.5C103.055 10.5 102 11.5547 102 12.8437C102 14.1328 103.055 15.1875 104.344 15.1875C105.633 15.1875 106.688 14.1328 106.688 12.8437C106.688 11.5547 105.656 10.5 104.344 10.5Z" fill="white" fill-opacity="0.8"/>
<path d="M117.797 87.7734C116.367 86.3438 114.469 85.5469 112.43 85.5469C110.555 85.5469 108.75 86.1094 107.203 87.1641L82.3359 98.2969C79.6875 99.4687 76.875 100.078 73.9922 100.078H70.9688C72.4453 98.3438 73.3359 96.0938 73.3359 93.6328C73.3359 88.1484 68.8594 83.6719 63.375 83.6719H51.8438L38.6016 77.0625C36.5156 76.0312 34.1953 75.4688 31.875 75.4688C29.6484 75.4688 27.4922 75.9375 25.4766 76.8984C23.6484 77.7656 21.7266 78.4453 19.7109 78.9844C18.8672 74.3438 14.7891 70.7812 9.91406 70.7812H1.71094C0.75 70.7812 -0.046875 71.5781 -0.046875 72.5391V85.4297C-0.046875 86.3906 0.75 87.1875 1.71094 87.1875C2.67188 87.1875 3.46875 86.3906 3.46875 85.4297V74.2969H9.91406C13.4766 74.2969 16.3594 77.1797 16.3594 80.7422V110.039C16.3594 113.602 13.4766 116.484 9.91406 116.484H3.51563V93.6328C3.51563 92.6719 2.71875 91.875 1.75781 91.875C0.796875 91.875 7.45058e-09 92.6719 7.45058e-09 93.6328V118.242C7.45058e-09 119.203 0.796875 120 1.75781 120H9.96094C14.8359 120 18.9141 116.461 19.7578 111.82C24.7031 112.102 29.5781 113.391 34.0078 115.594L34.2188 115.688C39.8438 118.5 46.1484 120 52.4297 120H65.5313C78.9141 120 91.8516 116.039 102.938 108.563L104.25 107.672C105.047 107.133 105.258 106.031 104.719 105.234C104.18 104.438 103.078 104.227 102.281 104.766L100.969 105.656C90.4453 112.734 78.1875 116.484 65.5078 116.484H52.4063C46.6875 116.484 40.9219 115.125 35.7891 112.547L35.5781 112.453C30.7266 110.016 25.3359 108.609 19.9219 108.305V82.5469C22.3828 81.9609 24.7734 81.1172 27.0234 80.0625C28.5469 79.3359 30.2109 78.9844 31.9219 78.9844C33.7031 78.9844 35.4844 79.4063 37.0781 80.2031L50.6719 87C50.9063 87.1172 51.1875 87.1875 51.4688 87.1875H63.4219C66.9844 87.1875 69.8672 90.0703 69.8672 93.6328C69.8672 97.1953 66.9609 100.078 63.3984 100.078H50.9766C50.0156 100.078 49.2188 100.875 49.2188 101.836C49.2188 102.797 50.0156 103.594 50.9766 103.594H74.0156C77.4141 103.594 80.6953 102.891 83.7891 101.508L108.797 90.3047C108.914 90.2578 109.008 90.1875 109.102 90.1406C110.086 89.4375 111.234 89.0625 112.43 89.0625C113.508 89.0625 114.539 89.4844 115.289 90.2578C116.039 91.0313 116.461 92.0391 116.461 93.1172C116.461 94.125 116.039 95.1562 115.289 95.9297L108.984 100.172C108.188 100.711 107.977 101.812 108.516 102.609C109.055 103.406 110.156 103.617 110.953 103.078L117.398 98.7188C117.492 98.6484 117.586 98.5781 117.656 98.5078C119.109 97.0547 119.953 95.0859 119.953 93.1172C120 91.1016 119.227 89.2031 117.797 87.7734Z" fill="white" fill-opacity="0.8"/>
</svg>
