<svg width="404" height="280" viewBox="0 0 404 280" fill="none" xmlns="http://www.w3.org/2000/svg">
<g clip-path="url(#clip0_245_8235)">
<path d="M76.5198 60.1093C89.2422 60.1093 99.5557 49.7958 99.5557 37.0734C99.5557 24.351 89.2422 14.0375 76.5198 14.0375C63.7974 14.0375 53.4839 24.351 53.4839 37.0734C53.4839 49.7958 63.7974 60.1093 76.5198 60.1093Z" fill="#A31FBC"/>
<path d="M188.598 123.502C188.598 177.856 156.285 196.835 116.425 196.835C76.5653 196.835 44.2524 177.856 44.2524 123.502C44.2524 69.1474 116.425 0 116.425 0C116.425 0 188.598 69.1474 188.598 123.502Z" fill="#2A614D"/>
<path d="M113.796 188.52L114.535 143.031L145.297 86.7532L114.651 135.895L114.984 115.441L136.185 74.7245L115.071 110.028L115.669 73.2402L138.372 40.825L115.763 67.4553L116.136 0L113.79 89.2987L113.983 85.6148L90.901 50.2845L113.613 92.6864L111.462 133.772L111.398 132.681L84.7886 95.5015L111.317 136.534L111.048 141.672L111 141.749L111.022 142.171L105.566 246.408H112.856L113.731 192.568L140.194 151.636L113.796 188.52Z" fill="#214438"/>
<path d="M403.342 145.764C403.342 190.256 376.892 205.79 344.265 205.79C311.638 205.79 285.188 190.256 285.188 145.764C285.188 101.272 344.265 44.6718 344.265 44.6718C344.265 44.6718 403.342 101.272 403.342 145.764Z" fill="#2A614D"/>
<path d="M342.113 198.985L342.718 161.749L367.898 115.683L342.813 155.908L343.085 139.165L360.439 105.837L343.157 134.734L343.646 104.622L362.229 78.0888L343.723 99.8873L344.029 44.6716L342.108 117.767L342.266 114.752L323.372 85.8318L341.962 120.54L340.202 154.17L340.149 153.278L318.369 122.844L340.084 156.431L339.863 160.637L339.824 160.7L339.842 161.045L335.376 246.368H341.343L342.059 202.297L363.721 168.793L342.113 198.985Z" fill="#214438"/>
<path d="M199.618 255.02C309.864 255.02 399.236 250.502 399.236 244.929C399.236 239.356 309.864 234.838 199.618 234.838C89.3719 234.838 0 239.356 0 244.929C0 250.502 89.3719 255.02 199.618 255.02Z" fill="#214438"/>
<path d="M321.223 263.329C340.106 263.329 355.413 262.555 355.413 261.6C355.413 260.646 340.106 259.872 321.223 259.872C302.34 259.872 287.033 260.646 287.033 261.6C287.033 262.555 302.34 263.329 321.223 263.329Z" fill="#214438"/>
<path d="M197.504 280C216.386 280 231.694 279.226 231.694 278.272C231.694 277.317 216.386 276.543 197.504 276.543C178.621 276.543 163.314 277.317 163.314 278.272C163.314 279.226 178.621 280 197.504 280Z" fill="#214438"/>
<path d="M103.642 268.242C146.781 268.242 181.753 266.474 181.753 264.293C181.753 262.113 146.781 260.345 103.642 260.345C60.5019 260.345 25.5303 262.113 25.5303 264.293C25.5303 266.474 60.5019 268.242 103.642 268.242Z" fill="#214438"/>
<path d="M34.9437 232.256C50.6479 232.256 63.3787 219.525 63.3787 203.821C63.3787 188.117 50.6479 175.386 34.9437 175.386C19.2396 175.386 6.50879 188.117 6.50879 203.821C6.50879 219.525 19.2396 232.256 34.9437 232.256Z" fill="#43A884"/>
<path d="M30.362 226.085L21.7241 225.983L21.5418 241.459L30.1796 241.561L30.362 226.085Z" fill="#43A884"/>
<path d="M47.6379 226.288L39 226.186L38.8176 241.662L47.4555 241.764L47.6379 226.288Z" fill="#43A884"/>
<path d="M35.9361 241.808C35.9536 240.318 32.7451 239.071 28.7696 239.024C24.7942 238.977 21.5572 240.148 21.5396 241.639C21.5221 243.13 24.7306 244.376 28.706 244.423C32.6815 244.47 35.9185 243.299 35.9361 241.808Z" fill="#43A884"/>
<path d="M53.2163 241.652C53.2339 240.161 50.0254 238.915 46.0499 238.868C42.0745 238.821 38.8375 239.992 38.8199 241.483C38.8023 242.973 42.0108 244.22 45.9863 244.267C49.9618 244.314 53.1988 243.143 53.2163 241.652Z" fill="#43A884"/>
<path d="M35.7485 206.349C41.1158 206.349 45.4668 201.998 45.4668 196.631C45.4668 191.264 41.1158 186.913 35.7485 186.913C30.3813 186.913 26.0303 191.264 26.0303 196.631C26.0303 201.998 30.3813 206.349 35.7485 206.349Z" fill="white"/>
<path d="M35.7487 199.871C37.5378 199.871 38.9881 198.42 38.9881 196.631C38.9881 194.842 37.5378 193.392 35.7487 193.392C33.9596 193.392 32.5093 194.842 32.5093 196.631C32.5093 198.42 33.9596 199.871 35.7487 199.871Z" fill="#214438"/>
<path d="M7.6746 177.054C5.49992 166.745 12.9612 156.443 24.3398 154.042C35.7185 151.642 46.7056 158.053 48.8803 168.362C51.055 178.671 43.489 182.374 32.1104 184.774C20.7318 187.175 9.84929 187.363 7.6746 177.054Z" fill="#6C63FF"/>
<path d="M78.3191 219.684C78.3191 239.508 66.5348 246.43 51.9969 246.43C51.6602 246.43 51.3239 246.426 50.9882 246.418C50.3146 246.404 49.6475 246.372 48.9883 246.327C35.8682 245.398 25.6748 238.121 25.6748 219.684C25.6748 200.604 50.0564 176.529 51.8879 174.747L51.8911 174.744C51.9617 174.675 51.9969 174.642 51.9969 174.642C51.9969 174.642 78.3191 199.86 78.3191 219.684Z" fill="#6C63FF"/>
<path d="M51.0384 243.397L60.6656 229.945L51.0143 244.874L50.9887 246.418C50.3151 246.404 49.6479 246.372 48.9888 246.327L50.0264 226.494L50.0184 226.34L50.036 226.311L50.1339 224.438L40.4585 209.472L50.1643 223.033L50.1868 223.43L50.971 208.445L42.6877 192.98L51.072 205.815L51.8883 174.747L51.8915 174.642V174.744L51.7552 199.243L60.0016 189.531L51.7216 201.353L51.5034 214.77L59.203 201.894L51.4714 216.744L51.3495 224.203L62.5275 206.282L51.3078 226.806L51.0384 243.397Z" fill="#214438"/>
<path d="M256.449 231.948C272.153 231.948 284.884 219.218 284.884 203.513C284.884 187.809 272.153 175.078 256.449 175.078C240.745 175.078 228.014 187.809 228.014 203.513C228.014 219.218 240.745 231.948 256.449 231.948Z" fill="#43A884"/>
<path d="M258.876 226.114L250.619 228.651L255.165 243.446L263.423 240.908L258.876 226.114Z" fill="#43A884"/>
<path d="M275.39 221.04L267.133 223.578L271.679 238.372L279.937 235.834L275.39 221.04Z" fill="#43A884"/>
<path d="M262.892 244.083C266.693 242.915 269.418 240.813 268.98 239.388C268.543 237.963 265.107 237.755 261.306 238.923C257.506 240.091 254.78 242.193 255.218 243.618C255.656 245.043 259.092 245.251 262.892 244.083Z" fill="#43A884"/>
<path d="M279.301 238.664C283.101 237.496 285.827 235.394 285.389 233.969C284.951 232.544 281.515 232.335 277.715 233.503C273.915 234.671 271.189 236.773 271.627 238.198C272.065 239.623 275.501 239.832 279.301 238.664Z" fill="#43A884"/>
<path d="M255.022 206.139C260.39 206.139 264.741 201.788 264.741 196.421C264.741 191.054 260.39 186.703 255.022 186.703C249.655 186.703 245.304 191.054 245.304 196.421C245.304 201.788 249.655 206.139 255.022 206.139Z" fill="white"/>
<path d="M255.023 199.66C256.812 199.66 258.262 198.21 258.262 196.421C258.262 194.632 256.812 193.181 255.023 193.181C253.234 193.181 251.783 194.632 251.783 196.421C251.783 198.21 253.234 199.66 255.023 199.66Z" fill="#214438"/>
<path d="M222.315 186.339C217.1 177.185 221.063 165.097 231.167 159.341C241.272 153.584 253.691 156.339 258.906 165.493C264.121 174.648 258.046 180.482 247.941 186.239C237.837 191.995 227.531 195.494 222.315 186.339Z" fill="#6C63FF"/>
<path d="M205.737 216.054C205.737 234.251 194.919 240.605 181.574 240.605C181.265 240.605 180.956 240.602 180.648 240.595C180.03 240.582 179.417 240.552 178.812 240.511C166.769 239.659 157.412 232.978 157.412 216.054C157.412 198.54 179.793 176.44 181.474 174.804L181.477 174.801C181.542 174.738 181.574 174.707 181.574 174.707C181.574 174.707 205.737 197.857 205.737 216.054Z" fill="#6C63FF"/>
<path d="M180.694 237.821L189.531 225.473L180.672 239.177L180.648 240.595C180.03 240.582 179.417 240.552 178.812 240.511L179.765 222.305L179.757 222.163L179.774 222.137L179.863 220.418L170.982 206.679L179.891 219.128L179.912 219.493L180.632 205.737L173.028 191.541L180.725 203.323L181.474 174.804L181.477 174.707V174.801L181.352 197.29L188.922 188.375L181.321 199.227L181.121 211.543L188.188 199.723L181.091 213.356L180.979 220.203L191.24 203.751L180.941 222.592L180.694 237.821Z" fill="#214438"/>
<path d="M300.76 223.643C300.76 243.467 288.976 250.389 274.438 250.389C274.101 250.389 273.765 250.385 273.429 250.378C272.756 250.363 272.088 250.331 271.429 250.286C258.309 249.358 248.116 242.08 248.116 223.643C248.116 204.564 272.497 180.488 274.329 178.707L274.332 178.703C274.403 178.635 274.438 178.601 274.438 178.601C274.438 178.601 300.76 203.82 300.76 223.643Z" fill="#6C63FF"/>
<path d="M273.479 247.356L283.106 233.904L273.455 248.833L273.429 250.378C272.756 250.363 272.088 250.331 271.429 250.286L272.467 230.453L272.459 230.299L272.476 230.27L272.574 228.397L262.899 213.431L272.605 226.992L272.627 227.39L273.411 212.404L265.128 196.94L273.512 209.774L274.329 178.707L274.332 178.601V178.703L274.196 203.202L282.442 193.49L274.162 205.313L273.944 218.73L281.643 205.853L273.912 220.704L273.79 228.163L284.968 210.241L273.748 230.766L273.479 247.356Z" fill="#214438"/>
<path d="M258.255 220.535C259.311 218.308 254.416 213.775 247.322 210.41C240.227 207.045 233.619 206.123 232.563 208.35C231.507 210.577 236.402 215.111 243.496 218.475C250.591 221.84 257.198 222.763 258.255 220.535Z" fill="#43A884"/>
<path d="M39.4049 217.933C40.322 215.645 35.157 211.422 27.8686 208.5C20.5801 205.579 13.9282 205.066 13.0111 207.354C12.094 209.642 17.259 213.865 24.5475 216.786C31.8359 219.707 38.4878 220.221 39.4049 217.933Z" fill="#43A884"/>
</g>
<defs>
<clipPath id="clip0_245_8235">
<rect width="403.342" height="280" fill="white"/>
</clipPath>
</defs>
</svg>
